<svg width="49" height="49" viewBox="0 0 49 49" fill="none" xmlns="http://www.w3.org/2000/svg">
<g clip-path="url(#clip0_2450_760)">
<path d="M24.5 0.5C11.2453 0.5 0.5 11.2453 0.5 24.5C0.5 35.755 8.24912 45.1995 18.7026 47.7934V31.8344H13.7538V24.5H18.7026V21.3397C18.7026 13.171 22.3995 9.3848 30.4194 9.3848C31.94 9.3848 34.5637 9.68336 35.637 9.98096V16.629C35.0706 16.5694 34.0866 16.5397 32.8645 16.5397C28.9294 16.5397 27.4088 18.0306 27.4088 21.9061V24.5H35.2482L33.9013 31.8344H27.4088V48.3243C39.2926 46.8891 48.501 36.7707 48.501 24.5C48.5 11.2453 37.7547 0.5 24.5 0.5Z" fill="#151314"/>
</g>
<defs>
<clipPath id="clip0_2450_760">
<rect width="48" height="48" fill="white" transform="translate(0.5 0.5)"/>
</clipPath>
</defs>
</svg>
