<svg width="49" height="49" viewBox="0 0 49 49" fill="none" xmlns="http://www.w3.org/2000/svg">
<g clip-path="url(#clip0_2450_758)">
<path d="M24.5 4.82187C30.9125 4.82187 31.6719 4.85 34.1938 4.9625C36.5375 5.06562 37.8031 5.45938 38.6469 5.7875C39.7625 6.21875 40.5688 6.74375 41.4031 7.57812C42.2469 8.42188 42.7625 9.21875 43.1938 10.3344C43.5219 11.1781 43.9156 12.4531 44.0188 14.7875C44.1313 17.3187 44.1594 18.0781 44.1594 24.4813C44.1594 30.8938 44.1313 31.6531 44.0188 34.175C43.9156 36.5188 43.5219 37.7844 43.1938 38.6281C42.7625 39.7438 42.2375 40.55 41.4031 41.3844C40.5594 42.2281 39.7625 42.7438 38.6469 43.175C37.8031 43.5031 36.5281 43.8969 34.1938 44C31.6625 44.1125 30.9031 44.1406 24.5 44.1406C18.0875 44.1406 17.3281 44.1125 14.8063 44C12.4625 43.8969 11.1969 43.5031 10.3531 43.175C9.2375 42.7438 8.43125 42.2188 7.59688 41.3844C6.75313 40.5406 6.2375 39.7438 5.80625 38.6281C5.47813 37.7844 5.08438 36.5094 4.98125 34.175C4.86875 31.6438 4.84063 30.8844 4.84063 24.4813C4.84063 18.0688 4.86875 17.3094 4.98125 14.7875C5.08438 12.4437 5.47813 11.1781 5.80625 10.3344C6.2375 9.21875 6.7625 8.4125 7.59688 7.57812C8.44063 6.73438 9.2375 6.21875 10.3531 5.7875C11.1969 5.45938 12.4719 5.06562 14.8063 4.9625C17.3281 4.85 18.0875 4.82187 24.5 4.82187ZM24.5 0.5C17.9844 0.5 17.1688 0.528125 14.6094 0.640625C12.0594 0.753125 10.3063 1.16562 8.7875 1.75625C7.20312 2.375 5.8625 3.19062 4.53125 4.53125C3.19063 5.8625 2.375 7.20313 1.75625 8.77813C1.16562 10.3063 0.753125 12.05 0.640625 14.6C0.528125 17.1687 0.5 17.9844 0.5 24.5C0.5 31.0156 0.528125 31.8312 0.640625 34.3906C0.753125 36.9406 1.16562 38.6938 1.75625 40.2125C2.375 41.7969 3.19063 43.1375 4.53125 44.4688C5.8625 45.8 7.20313 46.625 8.77813 47.2344C10.3063 47.825 12.05 48.2375 14.6 48.35C17.1594 48.4625 17.975 48.4906 24.4906 48.4906C31.0063 48.4906 31.8219 48.4625 34.3813 48.35C36.9313 48.2375 38.6844 47.825 40.2031 47.2344C41.7781 46.625 43.1188 45.8 44.45 44.4688C45.7812 43.1375 46.6063 41.7969 47.2156 40.2219C47.8063 38.6938 48.2188 36.95 48.3313 34.4C48.4438 31.8406 48.4719 31.025 48.4719 24.5094C48.4719 17.9938 48.4438 17.1781 48.3313 14.6188C48.2188 12.0688 47.8063 10.3156 47.2156 8.79688C46.625 7.20312 45.8094 5.8625 44.4688 4.53125C43.1375 3.2 41.7969 2.375 40.2219 1.76562C38.6938 1.175 36.95 0.7625 34.4 0.65C31.8313 0.528125 31.0156 0.5 24.5 0.5Z" fill="#151314"/>
<path d="M24.5 12.1719C17.6938 12.1719 12.1719 17.6938 12.1719 24.5C12.1719 31.3062 17.6938 36.8281 24.5 36.8281C31.3062 36.8281 36.8281 31.3062 36.8281 24.5C36.8281 17.6938 31.3062 12.1719 24.5 12.1719ZM24.5 32.4969C20.0844 32.4969 16.5031 28.9156 16.5031 24.5C16.5031 20.0844 20.0844 16.5031 24.5 16.5031C28.9156 16.5031 32.4969 20.0844 32.4969 24.5C32.4969 28.9156 28.9156 32.4969 24.5 32.4969Z" fill="#151314"/>
<path d="M40.1937 11.6843C40.1937 13.278 38.9 14.5624 37.3156 14.5624C35.7219 14.5624 34.4375 13.2687 34.4375 11.6843C34.4375 10.0905 35.7313 8.80615 37.3156 8.80615C38.9 8.80615 40.1937 10.0999 40.1937 11.6843Z" fill="#151314"/>
</g>
<defs>
<clipPath id="clip0_2450_758">
<rect width="48" height="48" fill="white" transform="translate(0.5 0.5)"/>
</clipPath>
</defs>
</svg>
