<svg width="49" height="49" viewBox="0 0 49 49" fill="none" xmlns="http://www.w3.org/2000/svg">
<g clip-path="url(#clip0_2450_757)">
<path d="M24.5 0.5C11.2438 0.5 0.5 11.2438 0.5 24.5C0.5 34.6719 6.82812 43.3531 15.7531 46.85C15.5469 44.9469 15.35 42.0406 15.8375 39.9688C16.2781 38.0938 18.65 28.0437 18.65 28.0437C18.65 28.0437 17.9281 26.6094 17.9281 24.4813C17.9281 21.1438 19.8594 18.65 22.2687 18.65C24.3125 18.65 25.3063 20.1875 25.3063 22.0344C25.3063 24.0969 23.9937 27.1719 23.3187 30.0219C22.7562 32.4125 24.5187 34.3625 26.8719 34.3625C31.1375 34.3625 34.4187 29.8625 34.4187 23.375C34.4187 17.6281 30.2937 13.6063 24.3969 13.6063C17.5719 13.6063 13.5594 18.725 13.5594 24.0219C13.5594 26.0844 14.3562 28.2969 15.35 29.4969C15.5469 29.7312 15.575 29.9469 15.5187 30.1813C15.3406 30.9406 14.9281 32.5719 14.8531 32.9C14.75 33.3406 14.5063 33.4344 14.0469 33.2188C11.0469 31.8219 9.17188 27.4438 9.17188 23.9188C9.17188 16.3438 14.675 9.39688 25.025 9.39688C33.35 9.39688 39.8187 15.3313 39.8187 23.2625C39.8187 31.5312 34.6063 38.1875 27.3688 38.1875C24.9406 38.1875 22.6531 36.9219 21.8656 35.4313C21.8656 35.4313 20.6656 40.0156 20.375 41.1406C19.8312 43.2219 18.3687 45.8375 17.3937 47.4313C19.6437 48.125 22.025 48.5 24.5 48.5C37.7562 48.5 48.5 37.7562 48.5 24.5C48.5 11.2438 37.7562 0.5 24.5 0.5Z" fill="#151314"/>
</g>
<defs>
<clipPath id="clip0_2450_757">
<rect width="48" height="48" fill="white" transform="translate(0.5 0.5)"/>
</clipPath>
</defs>
</svg>
